<?xml version="1.0" encoding="utf-8"?>
<!-- Generator: Adobe Illustrator 21.0.0, SVG Export Plug-In . SVG Version: 6.00 Build 0)  -->
<svg version="1.1" id="Layer_1" xmlns="http://www.w3.org/2000/svg" xmlns:xlink="http://www.w3.org/1999/xlink" x="0px" y="0px"
	 viewBox="0 0 107.5 77" enable-background="new 0 0 107.5 77" xml:space="preserve">
<path fill="#7B7B7B" d="M1.7,72.3L1.7,72.3c-0.9,0.1-1.6-0.5-1.7-1.3s0.5-1.6,1.3-1.7c0.1,0,0.2,0,0.3,0h47.5v3H1.7z"/>
<rect x="17.8" y="12.9" transform="matrix(0.7071 -0.7071 0.7071 0.7071 -5.1761 19.5151)" fill="#7B7B7B" width="6.3" height="6.3"/>
<rect x="17.8" y="21.7" transform="matrix(0.7071 -0.7071 0.7071 0.7071 -11.449 22.1151)" fill="#7B7B7B" width="6.3" height="6.3"/>
<rect x="99.9" y="12.9" transform="matrix(0.7071 -0.7071 0.7071 0.7071 18.861 77.5613)" fill="#7B7B7B" width="6.3" height="6.3"/>
<rect x="99.9" y="21.7" transform="matrix(0.7071 -0.7071 0.7071 0.7071 12.5952 80.1642)" fill="#7B7B7B" width="6.3" height="6.3"/>
<path fill="#7B7B7B" d="M14,59.9v-4.5h2.5V66H14v-4.7h-2.7V66H8.9V55.4h2.5v4.5L14,59.9z M20,61.5h2.1L21,57.7L20,61.5z M17.4,66
	l3-10.6h2.4L26,66h-2.6l-0.9-3.1h-3L18.7,66H17.4z M32,66l-2.4-5.2l2.6-5.4h1.3l-1.9,3.9l3.1,6.7L32,66z M27,66V55.4h2.5V66H27z
	 M35.4,66V55.4h5.5v1.4h-3v3.1h2.9v1.4h-2.9v3.2h3.2V66H35.4z M44.3,66v-9.2H42v-1.4h7.1v1.4h-2.4V66H44.3z"/>
<polygon fill="#FEA000" points="0.4,56.8 0.4,55.4 7.8,55.4 3.6,64.5 7.5,64.5 7.5,66 0.2,66 4.4,56.8 "/>
<polygon fill="#FEA000" points="53.2,33.8 72.4,47.5 78.3,42.4 80.7,39.4 53.2,19.8 "/>
<path fill="#7B7B7B" d="M80.8,39.4L55.9,21.6l0.2-0.1L77.6,6.1v6.5L67.2,20l0,0v0v3.7v0.1l0.1-0.1l13.4-9.7l0,0v0v-14V0l-0.1,0.1
	L53.2,19.6L53,19.5v0.2l-0.7,0.5l0,0v0v0.3v11.1v0.1v1.6l0.7,0.5v0.1l17.7,12.6l-12.1,8.6V59l0.1-0.1l18.9-13.5v6.5L55.5,67.6V41.8
	c0-0.8-0.3-1.7-0.9-2.3c-0.6-0.6-1.4-1-2.2-1H17.9c-2,0.1-3.9,0-5.9-0.3c-2.1-0.5-4-1.8-5.4-3.5c-1.3-1.8-2-4-2-6.2
	c0-2,0.7-4,1.9-5.6c1.2-1.6,2.9-2.9,4.8-3.6v-1.1h-0.1c-3.3,1.3-6.1,3.5-8.1,6.4c-1,1.5-1.8,3.1-2.3,4.9C-2,38.7,3.2,48.5,12.5,51.3
	c0.9,0.3,1.8,0.5,2.7,0.6c1,0.2,2,0.2,2.9,0.3h31.1V49H18c-0.3,0-0.6,0-1-0.1c-0.4,0-0.9-0.1-1.4-0.2c-0.4-0.1-0.9-0.2-1.2-0.2
	c-0.3-0.1-0.7-0.1-1-0.2c-1.5-0.5-3-1.2-4.3-2.1c-2.5-1.7-4.3-4.2-5.2-7c-0.4-1.3-0.7-2.7-0.7-4.1c0.1,0.2,0.2,0.4,0.4,0.6
	s0.4,0.5,0.5,0.8c0.9,1.1,1.9,2.1,3.1,2.9c1.2,0.8,2.6,1.4,4,1.8c2.2,0.4,4.4,0.5,6.7,0.4h34.4v0.1h0v28.9c0,0.3,0,0.6,0.2,0.9
	c0.1,0.3,0.4,0.5,0.6,0.6c0.3,0.2,0.8,0.2,1.1,0.1c0.4-0.1,0.7-0.3,1-0.5l25.5-18.2v-14L80.8,39.4L80.8,39.4z M55.5,25.3L77.6,41
	l0.4,0.3l-4.6,3.3l-18-12.8V25.3z"/>
<path fill="#7B7B7B" d="M83.9,55.2l19.1-13.6l0.1-0.1v14.2L80.3,71.9c-0.3,0.3-0.8,0.4-1.2,0.4c-0.4,0-0.7-0.2-1-0.5L78,71.7
	c-0.2-0.3-0.3-0.7-0.3-1.1c0-0.4,0.2-0.8,0.6-1.1l0.1-0.1l2.3-1.7l0.1-0.1L99.9,54v-6.5L84,58.9L83.9,59L83.9,55.2L83.9,55.2z"/>
<polygon fill="#7B7B7B" points="92.3,41.4 92.3,9.8 87,13.5 87,34.8 87,34.8 87,34.8 84,37 83.9,37.1 83.9,37 83.9,12 83.9,11.9 
	83.9,11.9 95.3,3.7 95.4,3.7 95.4,3.8 95.4,43 95.4,43 95.4,43 84,51.2 83.9,51.2 83.9,51.1 83.9,47.4 83.9,47.4 83.9,47.3 
	86.9,45.2 "/>
<rect x="99.9" y="30.6" transform="matrix(0.707 -0.7072 0.7072 0.707 6.3203 82.7701)" fill="#7B7B7B" width="6.3" height="6.3"/>
<polygon fill="#FEA000" points="58.6,73.1 80.6,57.5 80.7,57.4 80.7,57.5 80.7,61.2 80.7,61.3 80.7,61.3 77.7,63.4 58.7,76.9 
	58.6,77 58.6,76.9 58.6,73.2 58.6,73.1 "/>
</svg>
